<mxfile host="65bd71144e">
    <diagram id="KsQzY96yZdX13Jc66_mE" name="index-diskann">
        <mxGraphModel dx="1726" dy="1112" grid="1" gridSize="10" guides="1" tooltips="1" connect="1" arrows="1" fold="1" page="1" pageScale="1" pageWidth="827" pageHeight="1169" math="0" shadow="0">
            <root>
                <object label="" id="0">
                    <mxCell/>
                </object>
                <mxCell id="1" parent="0"/>
                <mxCell id="3" style="edgeStyle=none;html=1;startArrow=none;" parent="1" source="9" edge="1">
                    <mxGeometry relative="1" as="geometry">
                        <mxPoint x="218" y="770" as="targetPoint"/>
                    </mxGeometry>
                </mxCell>
                <mxCell id="2" value="Actor" style="shape=umlActor;verticalLabelPosition=bottom;verticalAlign=top;html=1;outlineConnect=0;" parent="1" vertex="1">
                    <mxGeometry x="203" y="200" width="30" height="60" as="geometry"/>
                </mxCell>
                <mxCell id="4" style="edgeStyle=none;html=1;" parent="1" source="5" edge="1">
                    <mxGeometry relative="1" as="geometry">
                        <mxPoint x="443" y="770" as="targetPoint"/>
                    </mxGeometry>
                </mxCell>
                <mxCell id="5" value="Actor" style="shape=umlActor;verticalLabelPosition=bottom;verticalAlign=top;html=1;outlineConnect=0;" parent="1" vertex="1">
                    <mxGeometry x="433" y="200" width="30" height="60" as="geometry"/>
                </mxCell>
                <mxCell id="6" value="" style="endArrow=classic;html=1;" parent="1" edge="1">
                    <mxGeometry width="50" height="50" relative="1" as="geometry">
                        <mxPoint x="223" y="330" as="sourcePoint"/>
                        <mxPoint x="443" y="330" as="targetPoint"/>
                    </mxGeometry>
                </mxCell>
                <mxCell id="12" value="create new" style="edgeLabel;html=1;align=center;verticalAlign=middle;resizable=0;points=[];fontSize=15;" parent="6" vertex="1" connectable="0">
                    <mxGeometry relative="1" as="geometry">
                        <mxPoint as="offset"/>
                    </mxGeometry>
                </mxCell>
                <mxCell id="10" value="" style="edgeStyle=none;html=1;endArrow=none;" parent="1" source="2" target="9" edge="1">
                    <mxGeometry relative="1" as="geometry">
                        <mxPoint x="218" y="640" as="targetPoint"/>
                        <mxPoint x="218" y="260" as="sourcePoint"/>
                    </mxGeometry>
                </mxCell>
                <mxCell id="9" value="index&lt;br style=&quot;font-size: 25px;&quot;&gt;" style="text;strokeColor=none;align=center;fillColor=none;html=1;verticalAlign=middle;whiteSpace=wrap;rounded=0;fontSize=25;" parent="1" vertex="1">
                    <mxGeometry x="193" y="150" width="60" height="30" as="geometry"/>
                </mxCell>
                <mxCell id="11" value="diskann" style="text;strokeColor=none;align=center;fillColor=none;html=1;verticalAlign=middle;whiteSpace=wrap;rounded=0;fontSize=25;" parent="1" vertex="1">
                    <mxGeometry x="423" y="150" width="60" height="30" as="geometry"/>
                </mxCell>
                <mxCell id="13" value="" style="endArrow=classic;html=1;" parent="1" edge="1">
                    <mxGeometry width="50" height="50" relative="1" as="geometry">
                        <mxPoint x="453" y="350" as="sourcePoint"/>
                        <mxPoint x="223" y="350" as="targetPoint"/>
                    </mxGeometry>
                </mxCell>
                <mxCell id="17" value="" style="endArrow=classic;html=1;" parent="1" edge="1">
                    <mxGeometry width="50" height="50" relative="1" as="geometry">
                        <mxPoint x="223" y="390" as="sourcePoint"/>
                        <mxPoint x="443" y="390" as="targetPoint"/>
                    </mxGeometry>
                </mxCell>
                <mxCell id="18" value="load data" style="edgeLabel;html=1;align=center;verticalAlign=middle;resizable=0;points=[];fontSize=15;" parent="17" vertex="1" connectable="0">
                    <mxGeometry relative="1" as="geometry">
                        <mxPoint as="offset"/>
                    </mxGeometry>
                </mxCell>
                <mxCell id="19" value="" style="endArrow=classic;html=1;" parent="1" edge="1">
                    <mxGeometry width="50" height="50" relative="1" as="geometry">
                        <mxPoint x="453" y="410" as="sourcePoint"/>
                        <mxPoint x="223" y="410" as="targetPoint"/>
                    </mxGeometry>
                </mxCell>
                <mxCell id="26" value="" style="endArrow=classic;html=1;" parent="1" edge="1">
                    <mxGeometry width="50" height="50" relative="1" as="geometry">
                        <mxPoint x="223" y="470" as="sourcePoint"/>
                        <mxPoint x="443" y="470" as="targetPoint"/>
                    </mxGeometry>
                </mxCell>
                <mxCell id="27" value="build" style="edgeLabel;html=1;align=center;verticalAlign=middle;resizable=0;points=[];fontSize=15;" parent="26" vertex="1" connectable="0">
                    <mxGeometry relative="1" as="geometry">
                        <mxPoint as="offset"/>
                    </mxGeometry>
                </mxCell>
                <mxCell id="28" value="" style="endArrow=classic;html=1;" parent="1" edge="1">
                    <mxGeometry width="50" height="50" relative="1" as="geometry">
                        <mxPoint x="443" y="490" as="sourcePoint"/>
                        <mxPoint x="223" y="490" as="targetPoint"/>
                    </mxGeometry>
                </mxCell>
                <mxCell id="32" value="" style="endArrow=classic;html=1;" parent="1" edge="1">
                    <mxGeometry width="50" height="50" relative="1" as="geometry">
                        <mxPoint x="223" y="530" as="sourcePoint"/>
                        <mxPoint x="443" y="530" as="targetPoint"/>
                    </mxGeometry>
                </mxCell>
                <mxCell id="33" value="load" style="edgeLabel;html=1;align=center;verticalAlign=middle;resizable=0;points=[];fontSize=15;" parent="32" vertex="1" connectable="0">
                    <mxGeometry relative="1" as="geometry">
                        <mxPoint as="offset"/>
                    </mxGeometry>
                </mxCell>
                <mxCell id="34" value="" style="endArrow=classic;html=1;" parent="1" edge="1">
                    <mxGeometry width="50" height="50" relative="1" as="geometry">
                        <mxPoint x="443" y="550" as="sourcePoint"/>
                        <mxPoint x="223" y="550" as="targetPoint"/>
                    </mxGeometry>
                </mxCell>
                <mxCell id="41" value="" style="endArrow=classic;html=1;" parent="1" edge="1">
                    <mxGeometry width="50" height="50" relative="1" as="geometry">
                        <mxPoint x="220" y="599" as="sourcePoint"/>
                        <mxPoint x="443" y="599" as="targetPoint"/>
                    </mxGeometry>
                </mxCell>
                <mxCell id="42" value="search" style="edgeLabel;html=1;align=center;verticalAlign=middle;resizable=0;points=[];fontSize=15;" parent="41" vertex="1" connectable="0">
                    <mxGeometry relative="1" as="geometry">
                        <mxPoint as="offset"/>
                    </mxGeometry>
                </mxCell>
                <mxCell id="43" value="" style="endArrow=classic;html=1;" parent="1" edge="1">
                    <mxGeometry width="50" height="50" relative="1" as="geometry">
                        <mxPoint x="443" y="620" as="sourcePoint"/>
                        <mxPoint x="220" y="619" as="targetPoint"/>
                    </mxGeometry>
                </mxCell>
                <mxCell id="44" value="" style="endArrow=classic;html=1;" parent="1" edge="1">
                    <mxGeometry width="50" height="50" relative="1" as="geometry">
                        <mxPoint x="216" y="660" as="sourcePoint"/>
                        <mxPoint x="436" y="660" as="targetPoint"/>
                    </mxGeometry>
                </mxCell>
                <mxCell id="45" value="close" style="edgeLabel;html=1;align=center;verticalAlign=middle;resizable=0;points=[];fontSize=15;" parent="44" vertex="1" connectable="0">
                    <mxGeometry relative="1" as="geometry">
                        <mxPoint as="offset"/>
                    </mxGeometry>
                </mxCell>
                <mxCell id="46" value="" style="endArrow=classic;html=1;" parent="1" edge="1">
                    <mxGeometry width="50" height="50" relative="1" as="geometry">
                        <mxPoint x="446" y="680" as="sourcePoint"/>
                        <mxPoint x="216" y="680" as="targetPoint"/>
                    </mxGeometry>
                </mxCell>
                <mxCell id="47" value="" style="endArrow=classic;html=1;" parent="1" edge="1">
                    <mxGeometry width="50" height="50" relative="1" as="geometry">
                        <mxPoint x="215" y="717" as="sourcePoint"/>
                        <mxPoint x="443" y="717" as="targetPoint"/>
                    </mxGeometry>
                </mxCell>
                <mxCell id="48" value="destroy" style="edgeLabel;html=1;align=center;verticalAlign=middle;resizable=0;points=[];fontSize=15;" parent="47" vertex="1" connectable="0">
                    <mxGeometry relative="1" as="geometry">
                        <mxPoint as="offset"/>
                    </mxGeometry>
                </mxCell>
                <mxCell id="49" value="" style="endArrow=classic;html=1;" parent="1" edge="1">
                    <mxGeometry width="50" height="50" relative="1" as="geometry">
                        <mxPoint x="445" y="735" as="sourcePoint"/>
                        <mxPoint x="215" y="735" as="targetPoint"/>
                    </mxGeometry>
                </mxCell>
            </root>
        </mxGraphModel>
    </diagram>
    <diagram name="diskann 启动" id="lEWvu7XvSqZuO1OG2PVi">
        <mxGraphModel dx="1726" dy="1112" grid="1" gridSize="10" guides="1" tooltips="1" connect="1" arrows="1" fold="1" page="1" pageScale="1" pageWidth="827" pageHeight="1169" math="0" shadow="0">
            <root>
                <object label="" id="6a4HeChPt2aJpsv7LCWu-0">
                    <mxCell/>
                </object>
                <mxCell id="6a4HeChPt2aJpsv7LCWu-1" parent="6a4HeChPt2aJpsv7LCWu-0"/>
                <mxCell id="6a4HeChPt2aJpsv7LCWu-4" style="edgeStyle=none;html=1;" parent="6a4HeChPt2aJpsv7LCWu-1" source="6a4HeChPt2aJpsv7LCWu-5" edge="1">
                    <mxGeometry relative="1" as="geometry">
                        <mxPoint x="131" y="770" as="targetPoint"/>
                    </mxGeometry>
                </mxCell>
                <mxCell id="6a4HeChPt2aJpsv7LCWu-5" value="Actor" style="shape=umlActor;verticalLabelPosition=bottom;verticalAlign=top;html=1;outlineConnect=0;" parent="6a4HeChPt2aJpsv7LCWu-1" vertex="1">
                    <mxGeometry x="121" y="200" width="30" height="60" as="geometry"/>
                </mxCell>
                <mxCell id="6a4HeChPt2aJpsv7LCWu-10" value="diskann" style="text;strokeColor=none;align=center;fillColor=none;html=1;verticalAlign=middle;whiteSpace=wrap;rounded=0;fontSize=25;" parent="6a4HeChPt2aJpsv7LCWu-1" vertex="1">
                    <mxGeometry x="111" y="150" width="60" height="30" as="geometry"/>
                </mxCell>
                <mxCell id="Wh4sR3Pwks6BjRIj0Ikd-3" value="" style="endArrow=classic;html=1;fontSize=25;curved=1;" parent="6a4HeChPt2aJpsv7LCWu-1" edge="1">
                    <mxGeometry width="50" height="50" relative="1" as="geometry">
                        <mxPoint x="140" y="310" as="sourcePoint"/>
                        <mxPoint x="140" y="400" as="targetPoint"/>
                        <Array as="points">
                            <mxPoint x="200" y="350"/>
                        </Array>
                    </mxGeometry>
                </mxCell>
                <mxCell id="Wh4sR3Pwks6BjRIj0Ikd-4" value="&amp;nbsp; 加载配置" style="edgeLabel;html=1;align=center;verticalAlign=middle;resizable=0;points=[];fontSize=20;" parent="Wh4sR3Pwks6BjRIj0Ikd-3" vertex="1" connectable="0">
                    <mxGeometry x="-0.387" y="-15" relative="1" as="geometry">
                        <mxPoint x="50" as="offset"/>
                    </mxGeometry>
                </mxCell>
                <mxCell id="Wh4sR3Pwks6BjRIj0Ikd-5" value="" style="endArrow=classic;html=1;fontSize=25;curved=1;" parent="6a4HeChPt2aJpsv7LCWu-1" edge="1">
                    <mxGeometry width="50" height="50" relative="1" as="geometry">
                        <mxPoint x="140" y="450" as="sourcePoint"/>
                        <mxPoint x="140" y="540" as="targetPoint"/>
                        <Array as="points">
                            <mxPoint x="200" y="490"/>
                        </Array>
                    </mxGeometry>
                </mxCell>
                <mxCell id="Wh4sR3Pwks6BjRIj0Ikd-6" value="初始化日志模块" style="edgeLabel;html=1;align=center;verticalAlign=middle;resizable=0;points=[];fontSize=20;" parent="Wh4sR3Pwks6BjRIj0Ikd-5" vertex="1" connectable="0">
                    <mxGeometry x="-0.387" y="-15" relative="1" as="geometry">
                        <mxPoint x="50" as="offset"/>
                    </mxGeometry>
                </mxCell>
                <mxCell id="Wh4sR3Pwks6BjRIj0Ikd-7" value="" style="endArrow=classic;html=1;fontSize=25;curved=1;" parent="6a4HeChPt2aJpsv7LCWu-1" edge="1">
                    <mxGeometry width="50" height="50" relative="1" as="geometry">
                        <mxPoint x="140" y="590" as="sourcePoint"/>
                        <mxPoint x="140" y="680" as="targetPoint"/>
                        <Array as="points">
                            <mxPoint x="200" y="630"/>
                        </Array>
                    </mxGeometry>
                </mxCell>
                <mxCell id="Wh4sR3Pwks6BjRIj0Ikd-8" value="启动diskann brpc 服务" style="edgeLabel;html=1;align=center;verticalAlign=middle;resizable=0;points=[];fontSize=20;" parent="Wh4sR3Pwks6BjRIj0Ikd-7" vertex="1" connectable="0">
                    <mxGeometry x="-0.387" y="-15" relative="1" as="geometry">
                        <mxPoint x="50" as="offset"/>
                    </mxGeometry>
                </mxCell>
            </root>
        </mxGraphModel>
    </diagram>
    <diagram name="向量创建变化" id="Kz01HfArI4Y778DdCQrT">
        <mxGraphModel dx="1726" dy="1112" grid="1" gridSize="10" guides="1" tooltips="1" connect="1" arrows="1" fold="1" page="1" pageScale="1" pageWidth="1169" pageHeight="827" math="0" shadow="0">
            <root>
                <object label="" id="YIjnVQ9xrtUJn5HdjP-b-0">
                    <mxCell/>
                </object>
                <mxCell id="YIjnVQ9xrtUJn5HdjP-b-1" parent="YIjnVQ9xrtUJn5HdjP-b-0"/>
                <mxCell id="CvRg8zguAQpZh-PbI4fm-8" style="html=1;exitX=1;exitY=0.5;exitDx=0;exitDy=0;entryX=0;entryY=0.5;entryDx=0;entryDy=0;fontSize=20;" parent="YIjnVQ9xrtUJn5HdjP-b-1" source="CvRg8zguAQpZh-PbI4fm-0" target="CvRg8zguAQpZh-PbI4fm-2" edge="1">
                    <mxGeometry relative="1" as="geometry"/>
                </mxCell>
                <mxCell id="CvRg8zguAQpZh-PbI4fm-0" value="create&amp;nbsp;" style="rounded=1;whiteSpace=wrap;html=1;fontSize=20;flipH=1;" parent="YIjnVQ9xrtUJn5HdjP-b-1" vertex="1">
                    <mxGeometry x="350" y="91" width="120" height="60" as="geometry"/>
                </mxCell>
                <mxCell id="CvRg8zguAQpZh-PbI4fm-1" value="" style="endArrow=none;html=1;fontSize=20;curved=1;" parent="YIjnVQ9xrtUJn5HdjP-b-1" edge="1">
                    <mxGeometry width="50" height="50" relative="1" as="geometry">
                        <mxPoint x="80" y="261" as="sourcePoint"/>
                        <mxPoint x="1060" y="261" as="targetPoint"/>
                    </mxGeometry>
                </mxCell>
                <mxCell id="CvRg8zguAQpZh-PbI4fm-2" value="add" style="rounded=1;whiteSpace=wrap;html=1;fontSize=20;flipH=1;" parent="YIjnVQ9xrtUJn5HdjP-b-1" vertex="1">
                    <mxGeometry x="540" y="11" width="120" height="60" as="geometry"/>
                </mxCell>
                <mxCell id="CvRg8zguAQpZh-PbI4fm-3" value="delete" style="rounded=1;whiteSpace=wrap;html=1;fontSize=20;flipH=1;" parent="YIjnVQ9xrtUJn5HdjP-b-1" vertex="1">
                    <mxGeometry x="540" y="91" width="120" height="60" as="geometry"/>
                </mxCell>
                <mxCell id="CvRg8zguAQpZh-PbI4fm-13" style="edgeStyle=none;html=1;exitX=1;exitY=0.5;exitDx=0;exitDy=0;entryX=1.017;entryY=0.617;entryDx=0;entryDy=0;entryPerimeter=0;fontSize=20;" parent="YIjnVQ9xrtUJn5HdjP-b-1" source="CvRg8zguAQpZh-PbI4fm-4" target="CvRg8zguAQpZh-PbI4fm-5" edge="1">
                    <mxGeometry relative="1" as="geometry"/>
                </mxCell>
                <mxCell id="CvRg8zguAQpZh-PbI4fm-4" value="search" style="rounded=1;whiteSpace=wrap;html=1;fontSize=20;flipH=1;" parent="YIjnVQ9xrtUJn5HdjP-b-1" vertex="1">
                    <mxGeometry x="540" y="181" width="120" height="60" as="geometry"/>
                </mxCell>
                <mxCell id="CvRg8zguAQpZh-PbI4fm-5" value="destroy" style="rounded=1;whiteSpace=wrap;html=1;fontSize=20;flipH=1;" parent="YIjnVQ9xrtUJn5HdjP-b-1" vertex="1">
                    <mxGeometry x="750" y="91" width="120" height="60" as="geometry"/>
                </mxCell>
                <mxCell id="CvRg8zguAQpZh-PbI4fm-9" value="" style="endArrow=classic;html=1;fontSize=20;exitX=1;exitY=0.5;exitDx=0;exitDy=0;entryX=0;entryY=0.5;entryDx=0;entryDy=0;" parent="YIjnVQ9xrtUJn5HdjP-b-1" source="CvRg8zguAQpZh-PbI4fm-0" target="CvRg8zguAQpZh-PbI4fm-3" edge="1">
                    <mxGeometry width="50" height="50" relative="1" as="geometry">
                        <mxPoint x="670" y="201" as="sourcePoint"/>
                        <mxPoint x="720" y="151" as="targetPoint"/>
                    </mxGeometry>
                </mxCell>
                <mxCell id="CvRg8zguAQpZh-PbI4fm-10" value="" style="endArrow=classic;html=1;fontSize=20;entryX=0;entryY=0.5;entryDx=0;entryDy=0;" parent="YIjnVQ9xrtUJn5HdjP-b-1" target="CvRg8zguAQpZh-PbI4fm-4" edge="1">
                    <mxGeometry width="50" height="50" relative="1" as="geometry">
                        <mxPoint x="470" y="121" as="sourcePoint"/>
                        <mxPoint x="720" y="151" as="targetPoint"/>
                    </mxGeometry>
                </mxCell>
                <mxCell id="CvRg8zguAQpZh-PbI4fm-11" value="" style="endArrow=classic;html=1;fontSize=20;exitX=1;exitY=0.5;exitDx=0;exitDy=0;entryX=0;entryY=0.5;entryDx=0;entryDy=0;" parent="YIjnVQ9xrtUJn5HdjP-b-1" source="CvRg8zguAQpZh-PbI4fm-2" target="CvRg8zguAQpZh-PbI4fm-5" edge="1">
                    <mxGeometry width="50" height="50" relative="1" as="geometry">
                        <mxPoint x="670" y="201" as="sourcePoint"/>
                        <mxPoint x="720" y="151" as="targetPoint"/>
                    </mxGeometry>
                </mxCell>
                <mxCell id="CvRg8zguAQpZh-PbI4fm-12" value="" style="endArrow=classic;html=1;fontSize=20;exitX=1;exitY=0.5;exitDx=0;exitDy=0;" parent="YIjnVQ9xrtUJn5HdjP-b-1" source="CvRg8zguAQpZh-PbI4fm-3" edge="1">
                    <mxGeometry width="50" height="50" relative="1" as="geometry">
                        <mxPoint x="670" y="201" as="sourcePoint"/>
                        <mxPoint x="740" y="121" as="targetPoint"/>
                    </mxGeometry>
                </mxCell>
                <mxCell id="CvRg8zguAQpZh-PbI4fm-25" style="html=1;exitX=1;exitY=0.5;exitDx=0;exitDy=0;entryX=0;entryY=0.5;entryDx=0;entryDy=0;fontSize=20;" parent="YIjnVQ9xrtUJn5HdjP-b-1" source="CvRg8zguAQpZh-PbI4fm-26" target="CvRg8zguAQpZh-PbI4fm-27" edge="1">
                    <mxGeometry relative="1" as="geometry"/>
                </mxCell>
                <mxCell id="CvRg8zguAQpZh-PbI4fm-26" value="load" style="rounded=1;whiteSpace=wrap;html=1;fontSize=20;flipH=1;" parent="YIjnVQ9xrtUJn5HdjP-b-1" vertex="1">
                    <mxGeometry x="440" y="367" width="120" height="60" as="geometry"/>
                </mxCell>
                <mxCell id="CvRg8zguAQpZh-PbI4fm-27" value="add" style="rounded=1;whiteSpace=wrap;html=1;fontSize=20;flipH=1;dashed=1;dashPattern=12 12;" parent="YIjnVQ9xrtUJn5HdjP-b-1" vertex="1">
                    <mxGeometry x="630" y="287" width="120" height="60" as="geometry"/>
                </mxCell>
                <mxCell id="CvRg8zguAQpZh-PbI4fm-28" value="delete" style="rounded=1;whiteSpace=wrap;html=1;fontSize=20;flipH=1;dashed=1;dashPattern=12 12;" parent="YIjnVQ9xrtUJn5HdjP-b-1" vertex="1">
                    <mxGeometry x="630" y="367" width="120" height="60" as="geometry"/>
                </mxCell>
                <mxCell id="CvRg8zguAQpZh-PbI4fm-29" style="edgeStyle=none;html=1;exitX=1;exitY=0.5;exitDx=0;exitDy=0;entryX=1.017;entryY=0.617;entryDx=0;entryDy=0;entryPerimeter=0;fontSize=20;" parent="YIjnVQ9xrtUJn5HdjP-b-1" source="CvRg8zguAQpZh-PbI4fm-30" target="CvRg8zguAQpZh-PbI4fm-31" edge="1">
                    <mxGeometry relative="1" as="geometry"/>
                </mxCell>
                <mxCell id="CvRg8zguAQpZh-PbI4fm-30" value="search" style="rounded=1;whiteSpace=wrap;html=1;fontSize=20;flipH=1;" parent="YIjnVQ9xrtUJn5HdjP-b-1" vertex="1">
                    <mxGeometry x="630" y="457" width="120" height="60" as="geometry"/>
                </mxCell>
                <mxCell id="CvRg8zguAQpZh-PbI4fm-31" value="close" style="rounded=1;whiteSpace=wrap;html=1;fontSize=20;flipH=1;" parent="YIjnVQ9xrtUJn5HdjP-b-1" vertex="1">
                    <mxGeometry x="840" y="367" width="120" height="60" as="geometry"/>
                </mxCell>
                <mxCell id="CvRg8zguAQpZh-PbI4fm-32" value="" style="endArrow=classic;html=1;fontSize=20;exitX=1;exitY=0.5;exitDx=0;exitDy=0;entryX=0;entryY=0.5;entryDx=0;entryDy=0;" parent="YIjnVQ9xrtUJn5HdjP-b-1" source="CvRg8zguAQpZh-PbI4fm-26" target="CvRg8zguAQpZh-PbI4fm-28" edge="1">
                    <mxGeometry width="50" height="50" relative="1" as="geometry">
                        <mxPoint x="760" y="477" as="sourcePoint"/>
                        <mxPoint x="810" y="427" as="targetPoint"/>
                    </mxGeometry>
                </mxCell>
                <mxCell id="CvRg8zguAQpZh-PbI4fm-33" value="" style="endArrow=classic;html=1;fontSize=20;entryX=0;entryY=0.5;entryDx=0;entryDy=0;" parent="YIjnVQ9xrtUJn5HdjP-b-1" target="CvRg8zguAQpZh-PbI4fm-30" edge="1">
                    <mxGeometry width="50" height="50" relative="1" as="geometry">
                        <mxPoint x="560" y="397" as="sourcePoint"/>
                        <mxPoint x="810" y="427" as="targetPoint"/>
                    </mxGeometry>
                </mxCell>
                <mxCell id="CvRg8zguAQpZh-PbI4fm-34" value="" style="endArrow=classic;html=1;fontSize=20;exitX=1;exitY=0.5;exitDx=0;exitDy=0;entryX=0;entryY=0.5;entryDx=0;entryDy=0;" parent="YIjnVQ9xrtUJn5HdjP-b-1" source="CvRg8zguAQpZh-PbI4fm-27" target="CvRg8zguAQpZh-PbI4fm-31" edge="1">
                    <mxGeometry width="50" height="50" relative="1" as="geometry">
                        <mxPoint x="760" y="477" as="sourcePoint"/>
                        <mxPoint x="810" y="427" as="targetPoint"/>
                    </mxGeometry>
                </mxCell>
                <mxCell id="CvRg8zguAQpZh-PbI4fm-35" value="" style="endArrow=classic;html=1;fontSize=20;exitX=1;exitY=0.5;exitDx=0;exitDy=0;" parent="YIjnVQ9xrtUJn5HdjP-b-1" source="CvRg8zguAQpZh-PbI4fm-28" edge="1">
                    <mxGeometry width="50" height="50" relative="1" as="geometry">
                        <mxPoint x="760" y="477" as="sourcePoint"/>
                        <mxPoint x="830" y="397" as="targetPoint"/>
                    </mxGeometry>
                </mxCell>
                <mxCell id="CvRg8zguAQpZh-PbI4fm-36" value="destroy" style="rounded=1;whiteSpace=wrap;html=1;fontSize=20;flipH=1;" parent="YIjnVQ9xrtUJn5HdjP-b-1" vertex="1">
                    <mxGeometry x="1010" y="367" width="120" height="60" as="geometry"/>
                </mxCell>
                <mxCell id="CvRg8zguAQpZh-PbI4fm-37" value="" style="endArrow=classic;html=1;fontSize=20;exitX=1;exitY=0.5;exitDx=0;exitDy=0;entryX=0;entryY=0.5;entryDx=0;entryDy=0;" parent="YIjnVQ9xrtUJn5HdjP-b-1" source="CvRg8zguAQpZh-PbI4fm-31" target="CvRg8zguAQpZh-PbI4fm-36" edge="1">
                    <mxGeometry width="50" height="50" relative="1" as="geometry">
                        <mxPoint x="740" y="301" as="sourcePoint"/>
                        <mxPoint x="790" y="251" as="targetPoint"/>
                    </mxGeometry>
                </mxCell>
                <mxCell id="CvRg8zguAQpZh-PbI4fm-43" style="edgeStyle=none;html=1;exitX=1;exitY=0.5;exitDx=0;exitDy=0;entryX=0;entryY=0.5;entryDx=0;entryDy=0;fontSize=20;" parent="YIjnVQ9xrtUJn5HdjP-b-1" source="CvRg8zguAQpZh-PbI4fm-38" target="CvRg8zguAQpZh-PbI4fm-26" edge="1">
                    <mxGeometry relative="1" as="geometry"/>
                </mxCell>
                <mxCell id="CvRg8zguAQpZh-PbI4fm-38" value="build" style="rounded=1;whiteSpace=wrap;html=1;fontSize=20;flipH=1;" parent="YIjnVQ9xrtUJn5HdjP-b-1" vertex="1">
                    <mxGeometry x="290" y="367" width="120" height="60" as="geometry"/>
                </mxCell>
                <mxCell id="CvRg8zguAQpZh-PbI4fm-42" style="edgeStyle=none;html=1;exitX=1;exitY=0.5;exitDx=0;exitDy=0;entryX=0;entryY=0.5;entryDx=0;entryDy=0;fontSize=20;" parent="YIjnVQ9xrtUJn5HdjP-b-1" source="CvRg8zguAQpZh-PbI4fm-39" target="CvRg8zguAQpZh-PbI4fm-38" edge="1">
                    <mxGeometry relative="1" as="geometry"/>
                </mxCell>
                <mxCell id="CvRg8zguAQpZh-PbI4fm-39" value="load data" style="rounded=1;whiteSpace=wrap;html=1;fontSize=20;flipH=1;" parent="YIjnVQ9xrtUJn5HdjP-b-1" vertex="1">
                    <mxGeometry x="152" y="367" width="120" height="60" as="geometry"/>
                </mxCell>
                <mxCell id="CvRg8zguAQpZh-PbI4fm-41" style="edgeStyle=none;html=1;exitX=1;exitY=0.5;exitDx=0;exitDy=0;fontSize=20;" parent="YIjnVQ9xrtUJn5HdjP-b-1" source="CvRg8zguAQpZh-PbI4fm-40" edge="1">
                    <mxGeometry relative="1" as="geometry">
                        <mxPoint x="150" y="397" as="targetPoint"/>
                    </mxGeometry>
                </mxCell>
                <mxCell id="CvRg8zguAQpZh-PbI4fm-40" value="create&amp;nbsp;" style="rounded=1;whiteSpace=wrap;html=1;fontSize=20;flipH=1;" parent="YIjnVQ9xrtUJn5HdjP-b-1" vertex="1">
                    <mxGeometry x="10" y="367" width="120" height="60" as="geometry"/>
                </mxCell>
                <mxCell id="CvRg8zguAQpZh-PbI4fm-44" value="以前" style="text;html=1;strokeColor=none;fillColor=none;align=center;verticalAlign=middle;whiteSpace=wrap;rounded=0;dashed=1;dashPattern=12 12;fontSize=20;" parent="YIjnVQ9xrtUJn5HdjP-b-1" vertex="1">
                    <mxGeometry x="92" y="101" width="60" height="30" as="geometry"/>
                </mxCell>
                <mxCell id="CvRg8zguAQpZh-PbI4fm-45" value="现在" style="text;html=1;strokeColor=none;fillColor=none;align=center;verticalAlign=middle;whiteSpace=wrap;rounded=0;dashed=1;dashPattern=12 12;fontSize=20;" parent="YIjnVQ9xrtUJn5HdjP-b-1" vertex="1">
                    <mxGeometry x="90" y="302" width="60" height="30" as="geometry"/>
                </mxCell>
                <mxCell id="HFh472ql0JcnsttQPzaf-0" value="" style="endArrow=none;html=1;fontSize=20;" parent="YIjnVQ9xrtUJn5HdjP-b-1" edge="1">
                    <mxGeometry width="50" height="50" relative="1" as="geometry">
                        <mxPoint x="70" y="540" as="sourcePoint"/>
                        <mxPoint x="1060" y="540" as="targetPoint"/>
                    </mxGeometry>
                </mxCell>
                <mxCell id="HFh472ql0JcnsttQPzaf-1" style="html=1;exitX=1;exitY=0.5;exitDx=0;exitDy=0;entryX=0;entryY=0.5;entryDx=0;entryDy=0;fontSize=20;" parent="YIjnVQ9xrtUJn5HdjP-b-1" source="HFh472ql0JcnsttQPzaf-2" target="HFh472ql0JcnsttQPzaf-3" edge="1">
                    <mxGeometry relative="1" as="geometry"/>
                </mxCell>
                <mxCell id="HFh472ql0JcnsttQPzaf-2" value="load" style="rounded=1;whiteSpace=wrap;html=1;fontSize=20;flipH=1;" parent="YIjnVQ9xrtUJn5HdjP-b-1" vertex="1">
                    <mxGeometry x="450" y="659" width="120" height="60" as="geometry"/>
                </mxCell>
                <mxCell id="HFh472ql0JcnsttQPzaf-3" value="add" style="rounded=1;whiteSpace=wrap;html=1;fontSize=20;flipH=1;dashed=1;dashPattern=12 12;" parent="YIjnVQ9xrtUJn5HdjP-b-1" vertex="1">
                    <mxGeometry x="640" y="579" width="120" height="60" as="geometry"/>
                </mxCell>
                <mxCell id="HFh472ql0JcnsttQPzaf-4" value="delete" style="rounded=1;whiteSpace=wrap;html=1;fontSize=20;flipH=1;dashed=1;dashPattern=12 12;" parent="YIjnVQ9xrtUJn5HdjP-b-1" vertex="1">
                    <mxGeometry x="640" y="659" width="120" height="60" as="geometry"/>
                </mxCell>
                <mxCell id="HFh472ql0JcnsttQPzaf-5" style="edgeStyle=none;html=1;exitX=1;exitY=0.5;exitDx=0;exitDy=0;entryX=1.017;entryY=0.617;entryDx=0;entryDy=0;entryPerimeter=0;fontSize=20;" parent="YIjnVQ9xrtUJn5HdjP-b-1" source="HFh472ql0JcnsttQPzaf-6" target="HFh472ql0JcnsttQPzaf-7" edge="1">
                    <mxGeometry relative="1" as="geometry"/>
                </mxCell>
                <mxCell id="HFh472ql0JcnsttQPzaf-6" value="search" style="rounded=1;whiteSpace=wrap;html=1;fontSize=20;flipH=1;" parent="YIjnVQ9xrtUJn5HdjP-b-1" vertex="1">
                    <mxGeometry x="640" y="749" width="120" height="60" as="geometry"/>
                </mxCell>
                <mxCell id="HFh472ql0JcnsttQPzaf-7" value="close" style="rounded=1;whiteSpace=wrap;html=1;fontSize=20;flipH=1;" parent="YIjnVQ9xrtUJn5HdjP-b-1" vertex="1">
                    <mxGeometry x="850" y="659" width="120" height="60" as="geometry"/>
                </mxCell>
                <mxCell id="HFh472ql0JcnsttQPzaf-8" value="" style="endArrow=classic;html=1;fontSize=20;exitX=1;exitY=0.5;exitDx=0;exitDy=0;entryX=0;entryY=0.5;entryDx=0;entryDy=0;" parent="YIjnVQ9xrtUJn5HdjP-b-1" source="HFh472ql0JcnsttQPzaf-2" target="HFh472ql0JcnsttQPzaf-4" edge="1">
                    <mxGeometry width="50" height="50" relative="1" as="geometry">
                        <mxPoint x="770" y="769" as="sourcePoint"/>
                        <mxPoint x="820" y="719" as="targetPoint"/>
                    </mxGeometry>
                </mxCell>
                <mxCell id="HFh472ql0JcnsttQPzaf-9" value="" style="endArrow=classic;html=1;fontSize=20;entryX=0;entryY=0.5;entryDx=0;entryDy=0;" parent="YIjnVQ9xrtUJn5HdjP-b-1" target="HFh472ql0JcnsttQPzaf-6" edge="1">
                    <mxGeometry width="50" height="50" relative="1" as="geometry">
                        <mxPoint x="570" y="689" as="sourcePoint"/>
                        <mxPoint x="820" y="719" as="targetPoint"/>
                    </mxGeometry>
                </mxCell>
                <mxCell id="HFh472ql0JcnsttQPzaf-10" value="" style="endArrow=classic;html=1;fontSize=20;exitX=1;exitY=0.5;exitDx=0;exitDy=0;entryX=0;entryY=0.5;entryDx=0;entryDy=0;" parent="YIjnVQ9xrtUJn5HdjP-b-1" source="HFh472ql0JcnsttQPzaf-3" target="HFh472ql0JcnsttQPzaf-7" edge="1">
                    <mxGeometry width="50" height="50" relative="1" as="geometry">
                        <mxPoint x="770" y="769" as="sourcePoint"/>
                        <mxPoint x="820" y="719" as="targetPoint"/>
                    </mxGeometry>
                </mxCell>
                <mxCell id="HFh472ql0JcnsttQPzaf-11" value="" style="endArrow=classic;html=1;fontSize=20;exitX=1;exitY=0.5;exitDx=0;exitDy=0;" parent="YIjnVQ9xrtUJn5HdjP-b-1" source="HFh472ql0JcnsttQPzaf-4" edge="1">
                    <mxGeometry width="50" height="50" relative="1" as="geometry">
                        <mxPoint x="770" y="769" as="sourcePoint"/>
                        <mxPoint x="840" y="689" as="targetPoint"/>
                    </mxGeometry>
                </mxCell>
                <mxCell id="HFh472ql0JcnsttQPzaf-12" value="destroy" style="rounded=1;whiteSpace=wrap;html=1;fontSize=20;flipH=1;" parent="YIjnVQ9xrtUJn5HdjP-b-1" vertex="1">
                    <mxGeometry x="1020" y="659" width="120" height="60" as="geometry"/>
                </mxCell>
                <mxCell id="HFh472ql0JcnsttQPzaf-13" value="" style="endArrow=classic;html=1;fontSize=20;exitX=1;exitY=0.5;exitDx=0;exitDy=0;entryX=0;entryY=0.5;entryDx=0;entryDy=0;" parent="YIjnVQ9xrtUJn5HdjP-b-1" source="HFh472ql0JcnsttQPzaf-7" target="HFh472ql0JcnsttQPzaf-12" edge="1">
                    <mxGeometry width="50" height="50" relative="1" as="geometry">
                        <mxPoint x="750" y="593" as="sourcePoint"/>
                        <mxPoint x="800" y="543" as="targetPoint"/>
                    </mxGeometry>
                </mxCell>
                <mxCell id="HFh472ql0JcnsttQPzaf-18" style="edgeStyle=none;html=1;exitX=1;exitY=0.5;exitDx=0;exitDy=0;fontSize=20;entryX=0;entryY=0.5;entryDx=0;entryDy=0;" parent="YIjnVQ9xrtUJn5HdjP-b-1" source="HFh472ql0JcnsttQPzaf-19" target="HFh472ql0JcnsttQPzaf-22" edge="1">
                    <mxGeometry relative="1" as="geometry">
                        <mxPoint x="387" y="689" as="targetPoint"/>
                    </mxGeometry>
                </mxCell>
                <mxCell id="HFh472ql0JcnsttQPzaf-19" value="create&amp;nbsp;" style="rounded=1;whiteSpace=wrap;html=1;fontSize=20;flipH=1;" parent="YIjnVQ9xrtUJn5HdjP-b-1" vertex="1">
                    <mxGeometry x="247" y="659" width="120" height="60" as="geometry"/>
                </mxCell>
                <mxCell id="HFh472ql0JcnsttQPzaf-20" value="简化" style="text;html=1;strokeColor=none;fillColor=none;align=center;verticalAlign=middle;whiteSpace=wrap;rounded=0;dashed=1;dashPattern=12 12;fontSize=20;" parent="YIjnVQ9xrtUJn5HdjP-b-1" vertex="1">
                    <mxGeometry x="100" y="594" width="60" height="30" as="geometry"/>
                </mxCell>
                <mxCell id="HFh472ql0JcnsttQPzaf-21" style="html=1;exitX=1;exitY=0.5;exitDx=0;exitDy=0;entryX=0;entryY=0.5;entryDx=0;entryDy=0;fontSize=20;" parent="YIjnVQ9xrtUJn5HdjP-b-1" source="HFh472ql0JcnsttQPzaf-22" edge="1">
                    <mxGeometry relative="1" as="geometry">
                        <mxPoint x="640" y="609" as="targetPoint"/>
                    </mxGeometry>
                </mxCell>
                <mxCell id="HFh472ql0JcnsttQPzaf-22" value="load" style="rounded=1;whiteSpace=wrap;html=1;fontSize=20;flipH=1;" parent="YIjnVQ9xrtUJn5HdjP-b-1" vertex="1">
                    <mxGeometry x="450" y="659" width="120" height="60" as="geometry"/>
                </mxCell>
                <mxCell id="HFh472ql0JcnsttQPzaf-23" value="delete" style="rounded=1;whiteSpace=wrap;html=1;fontSize=20;flipH=1;dashed=1;dashPattern=12 12;" parent="YIjnVQ9xrtUJn5HdjP-b-1" vertex="1">
                    <mxGeometry x="640" y="659" width="120" height="60" as="geometry"/>
                </mxCell>
                <mxCell id="HFh472ql0JcnsttQPzaf-24" style="edgeStyle=none;html=1;exitX=1;exitY=0.5;exitDx=0;exitDy=0;entryX=1.017;entryY=0.617;entryDx=0;entryDy=0;entryPerimeter=0;fontSize=20;" parent="YIjnVQ9xrtUJn5HdjP-b-1" source="HFh472ql0JcnsttQPzaf-25" target="HFh472ql0JcnsttQPzaf-26" edge="1">
                    <mxGeometry relative="1" as="geometry"/>
                </mxCell>
                <mxCell id="HFh472ql0JcnsttQPzaf-25" value="search" style="rounded=1;whiteSpace=wrap;html=1;fontSize=20;flipH=1;" parent="YIjnVQ9xrtUJn5HdjP-b-1" vertex="1">
                    <mxGeometry x="640" y="749" width="120" height="60" as="geometry"/>
                </mxCell>
                <mxCell id="HFh472ql0JcnsttQPzaf-26" value="close" style="rounded=1;whiteSpace=wrap;html=1;fontSize=20;flipH=1;" parent="YIjnVQ9xrtUJn5HdjP-b-1" vertex="1">
                    <mxGeometry x="850" y="659" width="120" height="60" as="geometry"/>
                </mxCell>
                <mxCell id="HFh472ql0JcnsttQPzaf-27" value="" style="endArrow=classic;html=1;fontSize=20;exitX=1;exitY=0.5;exitDx=0;exitDy=0;entryX=0;entryY=0.5;entryDx=0;entryDy=0;" parent="YIjnVQ9xrtUJn5HdjP-b-1" source="HFh472ql0JcnsttQPzaf-22" target="HFh472ql0JcnsttQPzaf-23" edge="1">
                    <mxGeometry width="50" height="50" relative="1" as="geometry">
                        <mxPoint x="770" y="769" as="sourcePoint"/>
                        <mxPoint x="820" y="719" as="targetPoint"/>
                    </mxGeometry>
                </mxCell>
                <mxCell id="HFh472ql0JcnsttQPzaf-28" value="" style="endArrow=classic;html=1;fontSize=20;entryX=0;entryY=0.5;entryDx=0;entryDy=0;" parent="YIjnVQ9xrtUJn5HdjP-b-1" target="HFh472ql0JcnsttQPzaf-25" edge="1">
                    <mxGeometry width="50" height="50" relative="1" as="geometry">
                        <mxPoint x="570" y="689" as="sourcePoint"/>
                        <mxPoint x="820" y="719" as="targetPoint"/>
                    </mxGeometry>
                </mxCell>
                <mxCell id="HFh472ql0JcnsttQPzaf-29" value="" style="endArrow=classic;html=1;fontSize=20;exitX=1;exitY=0.5;exitDx=0;exitDy=0;entryX=0;entryY=0.5;entryDx=0;entryDy=0;" parent="YIjnVQ9xrtUJn5HdjP-b-1" target="HFh472ql0JcnsttQPzaf-26" edge="1">
                    <mxGeometry width="50" height="50" relative="1" as="geometry">
                        <mxPoint x="760" y="609" as="sourcePoint"/>
                        <mxPoint x="820" y="719" as="targetPoint"/>
                    </mxGeometry>
                </mxCell>
                <mxCell id="HFh472ql0JcnsttQPzaf-30" value="" style="endArrow=classic;html=1;fontSize=20;exitX=1;exitY=0.5;exitDx=0;exitDy=0;" parent="YIjnVQ9xrtUJn5HdjP-b-1" source="HFh472ql0JcnsttQPzaf-23" edge="1">
                    <mxGeometry width="50" height="50" relative="1" as="geometry">
                        <mxPoint x="770" y="769" as="sourcePoint"/>
                        <mxPoint x="840" y="689" as="targetPoint"/>
                    </mxGeometry>
                </mxCell>
                <mxCell id="HFh472ql0JcnsttQPzaf-31" value="destroy" style="rounded=1;whiteSpace=wrap;html=1;fontSize=20;flipH=1;" parent="YIjnVQ9xrtUJn5HdjP-b-1" vertex="1">
                    <mxGeometry x="1020" y="659" width="120" height="60" as="geometry"/>
                </mxCell>
                <mxCell id="HFh472ql0JcnsttQPzaf-32" value="" style="endArrow=classic;html=1;fontSize=20;exitX=1;exitY=0.5;exitDx=0;exitDy=0;entryX=0;entryY=0.5;entryDx=0;entryDy=0;" parent="YIjnVQ9xrtUJn5HdjP-b-1" source="HFh472ql0JcnsttQPzaf-26" target="HFh472ql0JcnsttQPzaf-31" edge="1">
                    <mxGeometry width="50" height="50" relative="1" as="geometry">
                        <mxPoint x="750" y="593" as="sourcePoint"/>
                        <mxPoint x="800" y="543" as="targetPoint"/>
                    </mxGeometry>
                </mxCell>
                <mxCell id="HFh472ql0JcnsttQPzaf-38" value="create&amp;nbsp;" style="rounded=1;whiteSpace=wrap;html=1;fontSize=20;flipH=1;" parent="YIjnVQ9xrtUJn5HdjP-b-1" vertex="1">
                    <mxGeometry x="247" y="659" width="120" height="60" as="geometry"/>
                </mxCell>
            </root>
        </mxGraphModel>
    </diagram>
    <diagram name="文件处理" id="ZKaQFyhruKnb-0-cmgz1">
        <mxGraphModel dx="1726" dy="1112" grid="1" gridSize="10" guides="1" tooltips="1" connect="1" arrows="1" fold="1" page="1" pageScale="1" pageWidth="1169" pageHeight="827" math="0" shadow="0">
            <root>
                <object label="" id="Pt477WvV2wyNr7SC8ilR-0">
                    <mxCell/>
                </object>
                <mxCell id="Pt477WvV2wyNr7SC8ilR-1" parent="Pt477WvV2wyNr7SC8ilR-0"/>
                <mxCell id="Pt477WvV2wyNr7SC8ilR-4" value="" style="endArrow=none;html=1;fontSize=20;curved=1;" parent="Pt477WvV2wyNr7SC8ilR-1" edge="1">
                    <mxGeometry width="50" height="50" relative="1" as="geometry">
                        <mxPoint x="80" y="291" as="sourcePoint"/>
                        <mxPoint x="1060" y="291" as="targetPoint"/>
                    </mxGeometry>
                </mxCell>
                <mxCell id="Pt477WvV2wyNr7SC8ilR-33" value="假设前提：需要加载的文件为/data.bin, build 创建的目录为 /build_, 我们的目标是在任意时刻，发生意外如宕机，diskann进程意外kill,diskkann 进程下次启动均能正常恢复。" style="text;html=1;strokeColor=none;fillColor=none;align=center;verticalAlign=middle;whiteSpace=wrap;rounded=0;dashed=1;dashPattern=12 12;fontSize=20;" parent="Pt477WvV2wyNr7SC8ilR-1" vertex="1">
                    <mxGeometry x="99" y="50" width="940" height="50" as="geometry"/>
                </mxCell>
                <mxCell id="B3A6Obx0E-1qDAHU1dZu-0" value="" style="endArrow=none;html=1;fontSize=20;curved=1;" parent="Pt477WvV2wyNr7SC8ilR-1" edge="1">
                    <mxGeometry width="50" height="50" relative="1" as="geometry">
                        <mxPoint x="79" y="160" as="sourcePoint"/>
                        <mxPoint x="1059" y="160" as="targetPoint"/>
                    </mxGeometry>
                </mxCell>
                <mxCell id="jZshQXKlv-Qtg8ZxzA9Y-0" value="load data:" style="text;html=1;align=center;verticalAlign=middle;resizable=0;points=[];autosize=1;strokeColor=none;fillColor=none;fontSize=20;" parent="Pt477WvV2wyNr7SC8ilR-1" vertex="1">
                    <mxGeometry x="70" y="170" width="110" height="40" as="geometry"/>
                </mxCell>
                <mxCell id="jZshQXKlv-Qtg8ZxzA9Y-1" value="1.touch /data.bin.tmp state:creating&lt;br&gt;2.put data to /data.bin.tmp&lt;br&gt;3.rename /data.bin.tmp -&amp;gt; /data.bin state:created -&amp;gt;state:unused" style="text;html=1;strokeColor=none;fillColor=none;align=left;verticalAlign=top;whiteSpace=wrap;rounded=0;dashed=1;dashPattern=12 12;fontSize=20;" parent="Pt477WvV2wyNr7SC8ilR-1" vertex="1">
                    <mxGeometry x="174" y="200" width="880" height="90" as="geometry"/>
                </mxCell>
                <mxCell id="jZshQXKlv-Qtg8ZxzA9Y-2" value="" style="endArrow=none;html=1;fontSize=20;curved=1;" parent="Pt477WvV2wyNr7SC8ilR-1" edge="1">
                    <mxGeometry width="50" height="50" relative="1" as="geometry">
                        <mxPoint x="82" y="510" as="sourcePoint"/>
                        <mxPoint x="1062" y="510" as="targetPoint"/>
                    </mxGeometry>
                </mxCell>
                <mxCell id="jZshQXKlv-Qtg8ZxzA9Y-3" value="" style="endArrow=none;html=1;fontSize=20;curved=1;" parent="Pt477WvV2wyNr7SC8ilR-1" edge="1">
                    <mxGeometry width="50" height="50" relative="1" as="geometry">
                        <mxPoint x="81" y="290" as="sourcePoint"/>
                        <mxPoint x="1061" y="290" as="targetPoint"/>
                    </mxGeometry>
                </mxCell>
                <mxCell id="jZshQXKlv-Qtg8ZxzA9Y-4" value="build：" style="text;html=1;align=left;verticalAlign=middle;resizable=0;points=[];autosize=1;strokeColor=none;fillColor=none;fontSize=20;" parent="Pt477WvV2wyNr7SC8ilR-1" vertex="1">
                    <mxGeometry x="82" y="300" width="90" height="40" as="geometry"/>
                </mxCell>
                <mxCell id="jZshQXKlv-Qtg8ZxzA9Y-5" value="1. change /data.bin state , state : using&lt;br&gt;2. touch /build_tmp state : creating&lt;br&gt;3. start build diskann( long time) state : building&lt;br&gt;4.end build diskann state = builded&lt;br&gt;&amp;nbsp; &amp;nbsp;remove /build_tmp&lt;br&gt;&amp;nbsp; &amp;nbsp;change /data.bin state. state = unused&lt;br&gt;&amp;nbsp; change state = unused." style="text;html=1;strokeColor=none;fillColor=none;align=left;verticalAlign=top;whiteSpace=wrap;rounded=0;dashed=1;dashPattern=12 12;fontSize=20;" parent="Pt477WvV2wyNr7SC8ilR-1" vertex="1">
                    <mxGeometry x="172" y="330" width="880" height="150" as="geometry"/>
                </mxCell>
                <mxCell id="jZshQXKlv-Qtg8ZxzA9Y-6" value="1. /build_ set state = using use_count++" style="text;html=1;strokeColor=none;fillColor=none;align=left;verticalAlign=top;whiteSpace=wrap;rounded=0;dashed=1;dashPattern=12 12;fontSize=20;" parent="Pt477WvV2wyNr7SC8ilR-1" vertex="1">
                    <mxGeometry x="172" y="520" width="880" height="40" as="geometry"/>
                </mxCell>
                <mxCell id="jZshQXKlv-Qtg8ZxzA9Y-7" value="load:" style="text;html=1;align=left;verticalAlign=middle;resizable=0;points=[];autosize=1;strokeColor=none;fillColor=none;fontSize=20;" parent="Pt477WvV2wyNr7SC8ilR-1" vertex="1">
                    <mxGeometry x="82" y="510" width="70" height="40" as="geometry"/>
                </mxCell>
                <mxCell id="jZshQXKlv-Qtg8ZxzA9Y-8" value="" style="endArrow=none;html=1;fontSize=20;curved=1;" parent="Pt477WvV2wyNr7SC8ilR-1" edge="1">
                    <mxGeometry width="50" height="50" relative="1" as="geometry">
                        <mxPoint x="82" y="560" as="sourcePoint"/>
                        <mxPoint x="1062" y="560" as="targetPoint"/>
                    </mxGeometry>
                </mxCell>
                <mxCell id="jZshQXKlv-Qtg8ZxzA9Y-9" value="1./build use_count-- ;&lt;br&gt;2.&amp;nbsp; if (0 == use_count) set state = unsed&amp;nbsp;" style="text;html=1;strokeColor=none;fillColor=none;align=left;verticalAlign=top;whiteSpace=wrap;rounded=0;dashed=1;dashPattern=12 12;fontSize=20;" parent="Pt477WvV2wyNr7SC8ilR-1" vertex="1">
                    <mxGeometry x="174" y="569" width="880" height="61" as="geometry"/>
                </mxCell>
                <mxCell id="jZshQXKlv-Qtg8ZxzA9Y-10" value="close:" style="text;html=1;align=left;verticalAlign=middle;resizable=0;points=[];autosize=1;strokeColor=none;fillColor=none;fontSize=20;" parent="Pt477WvV2wyNr7SC8ilR-1" vertex="1">
                    <mxGeometry x="84" y="559" width="80" height="40" as="geometry"/>
                </mxCell>
                <mxCell id="jZshQXKlv-Qtg8ZxzA9Y-11" value="" style="endArrow=none;html=1;fontSize=20;curved=1;" parent="Pt477WvV2wyNr7SC8ilR-1" edge="1">
                    <mxGeometry width="50" height="50" relative="1" as="geometry">
                        <mxPoint x="85" y="635" as="sourcePoint"/>
                        <mxPoint x="1065" y="635" as="targetPoint"/>
                    </mxGeometry>
                </mxCell>
                <mxCell id="jZshQXKlv-Qtg8ZxzA9Y-12" value="destroy" style="text;html=1;align=left;verticalAlign=middle;resizable=0;points=[];autosize=1;strokeColor=none;fillColor=none;fontSize=20;" parent="Pt477WvV2wyNr7SC8ilR-1" vertex="1">
                    <mxGeometry x="92" y="632" width="90" height="40" as="geometry"/>
                </mxCell>
                <mxCell id="jZshQXKlv-Qtg8ZxzA9Y-13" value="1. if(/build_ state == unused) set state = destroying&amp;nbsp;&lt;br&gt;2. touch /build_destroy file&lt;br&gt;3. remove /build_*.bin (may be const much time)&lt;br&gt;4. remove /build_destroy change /build_ state = destroyed&lt;br&gt;5. if (/data.bin state == unused) set state = destroying&lt;br&gt;&amp;nbsp; &amp;nbsp; &amp;nbsp;touch /data.bin.destroy&lt;br&gt;6. remove /data.bin remove /data.bin.destroy ; set state = destroyed" style="text;html=1;strokeColor=none;fillColor=none;align=left;verticalAlign=top;whiteSpace=wrap;rounded=0;dashed=1;dashPattern=12 12;fontSize=20;" parent="Pt477WvV2wyNr7SC8ilR-1" vertex="1">
                    <mxGeometry x="182" y="652" width="880" height="150" as="geometry"/>
                </mxCell>
            </root>
        </mxGraphModel>
    </diagram>
</mxfile>